# xmcd CD database file
#
# Track frame offsets:
#	150
#	17814
#	37466
#	63055
#	79954
#	100728
#	124818
#	147222
#	164920
#	189943
#	207342
#
# Disc length: 3010 seconds
#
# Revision: 0
# Processed by: cddbd v1.5PL3 Copyright (c) Steve Scherf et al.
# Submitted via: CDex 1.51
#
DISCID=9e0bc00b
DTITLE=WACO - Darling Clementine
DYEAR=1997
DGENRE=New Age
TTITLE0=Take a Gun to the Movies
TTITLE1=In Your Room
TTITLE2=While You Sleep
TTITLE3=The Devil in Bakersfield
TTITLE4=Love
TTITLE5=Twitch
TTITLE6=The Stripper
TTITLE7=Our 51st State
TTITLE8=Beautiful
TTITLE9=Get Out Of My Brain
TTITLE10=Andy
EXTD=YEAR: 1997
EXTT0=
EXTT1=
EXTT2=
EXTT3=
EXTT4=
EXTT5=
EXTT6=
EXTT7=
EXTT8=
EXTT9=
EXTT10=
PLAYORDER=
